<?xml version="1.0" encoding="utf-8"?>
<!-- Generator: Adobe Illustrator 16.0.0, SVG Export Plug-In . SVG Version: 6.00 Build 0)  -->
<!DOCTYPE svg PUBLIC "-//W3C//DTD SVG 1.1//EN" "http://www.w3.org/Graphics/SVG/1.1/DTD/svg11.dtd">
<svg version="1.1" id="Layer_1" xmlns="http://www.w3.org/2000/svg" xmlns:xlink="http://www.w3.org/1999/xlink" x="0px" y="0px"
	 width="19.107px" height="18px" viewBox="1101.446 386.999 19.107 18" enable-background="new 1101.446 386.999 19.107 18"
	 xml:space="preserve">
<g>
	<path fill="#FFFFFF" d="M1105.654,397.926c-0.301,0-0.545,0.244-0.545,0.546v0.946c0,0.301,0.244,0.545,0.545,0.545
		c0.302,0,0.546-0.244,0.546-0.545v-0.946C1106.2,398.17,1105.956,397.926,1105.654,397.926z"/>
	<path fill="#FFFFFF" d="M1107.836,397.926c-0.301,0-0.545,0.244-0.545,0.546v0.946c0,0.301,0.244,0.545,0.545,0.545
		c0.302,0,0.545-0.244,0.545-0.545v-0.946C1108.381,398.17,1108.138,397.926,1107.836,397.926z"/>
	<path fill="#FFFFFF" d="M1110.018,397.926c-0.301,0-0.545,0.244-0.545,0.546v0.946c0,0.301,0.244,0.545,0.545,0.545
		s0.545-0.244,0.545-0.545v-0.946C1110.563,398.17,1110.318,397.926,1110.018,397.926z"/>
	<path fill="#FFFFFF" d="M1111.982,397.926c-0.301,0-0.545,0.244-0.545,0.546v0.946c0,0.301,0.244,0.545,0.545,0.545
		c0.302,0,0.546-0.244,0.546-0.545v-0.946C1112.528,398.17,1112.284,397.926,1111.982,397.926z"/>
	<path fill="#FFFFFF" d="M1114.164,397.926c-0.301,0-0.545,0.244-0.545,0.546v0.946c0,0.301,0.244,0.545,0.545,0.545
		s0.545-0.244,0.545-0.545v-0.946C1114.709,398.17,1114.465,397.926,1114.164,397.926z"/>
	<path fill="#FFFFFF" d="M1116.346,397.926c-0.302,0-0.546,0.244-0.546,0.546v0.946c0,0.301,0.244,0.545,0.546,0.545
		c0.301,0,0.545-0.244,0.545-0.545v-0.946C1116.891,398.17,1116.646,397.926,1116.346,397.926z"/>
	<path fill="#FFFFFF" d="M1105.654,394.882c-0.301,0-0.545,0.244-0.545,0.545v0.946c0,0.302,0.244,0.546,0.545,0.546
		c0.302,0,0.546-0.244,0.546-0.546v-0.946C1106.2,395.126,1105.956,394.882,1105.654,394.882L1105.654,394.882z"/>
	<path fill="#FFFFFF" d="M1107.836,394.882c-0.301,0-0.545,0.244-0.545,0.545v0.946c0,0.302,0.244,0.546,0.545,0.546
		c0.302,0,0.545-0.244,0.545-0.546v-0.946C1108.381,395.126,1108.138,394.882,1107.836,394.882L1107.836,394.882z"/>
	<path fill="#FFFFFF" d="M1110.018,394.882c-0.301,0-0.545,0.244-0.545,0.545v0.946c0,0.302,0.244,0.546,0.545,0.546
		s0.545-0.244,0.545-0.546v-0.946C1110.563,395.126,1110.318,394.882,1110.018,394.882L1110.018,394.882z"/>
	<path fill="#FFFFFF" d="M1111.982,394.882c-0.301,0-0.545,0.244-0.545,0.545v0.946c0,0.302,0.244,0.546,0.545,0.546
		c0.302,0,0.546-0.244,0.546-0.546v-0.946C1112.528,395.126,1112.284,394.882,1111.982,394.882L1111.982,394.882z"/>
	<path fill="#FFFFFF" d="M1114.164,394.882c-0.301,0-0.545,0.244-0.545,0.545v0.946c0,0.302,0.244,0.546,0.545,0.546
		s0.545-0.244,0.545-0.546v-0.946C1114.709,395.126,1114.465,394.882,1114.164,394.882L1114.164,394.882z"/>
	<path fill="#FFFFFF" d="M1116.346,394.882c-0.302,0-0.546,0.244-0.546,0.545v0.946c0,0.302,0.244,0.546,0.546,0.546
		c0.301,0,0.545-0.244,0.545-0.546v-0.946C1116.891,395.126,1116.646,394.882,1116.346,394.882L1116.346,394.882z"/>
	<path fill="#FFFFFF" d="M1108.818,389.313c-0.301,0-0.545,0.244-0.545,0.545v0.946c0,0.301,0.244,0.545,0.545,0.545
		c0.302,0,0.546-0.244,0.546-0.545v-0.946C1109.364,389.557,1109.12,389.313,1108.818,389.313z"/>
	<path fill="#FFFFFF" d="M1111,389.313c-0.301,0-0.545,0.244-0.545,0.545v0.946c0,0.301,0.244,0.545,0.545,0.545
		s0.545-0.244,0.545-0.545v-0.946C1111.545,389.557,1111.301,389.313,1111,389.313z"/>
	<path fill="#FFFFFF" d="M1113.182,389.313c-0.302,0-0.546,0.244-0.546,0.545v0.946c0,0.301,0.244,0.545,0.546,0.545
		c0.301,0,0.545-0.244,0.545-0.545v-0.946C1113.727,389.557,1113.482,389.313,1113.182,389.313z"/>
	<path fill="#FFFFFF" d="M1120.009,392.231h-4.038v-4.687c0-0.301-0.244-0.545-0.545-0.545h-8.851c-0.302,0-0.546,0.244-0.546,0.545
		v4.687h-4.038c-0.301,0-0.545,0.244-0.545,0.545c0,0.301,0.244,0.545,0.545,0.545h0.513v11.132c0,0.301,0.244,0.545,0.546,0.545
		h15.9c0.302,0,0.546-0.244,0.546-0.545v-11.132h0.513c0.301,0,0.545-0.244,0.545-0.545
		C1120.554,392.475,1120.31,392.231,1120.009,392.231z M1113.688,403.908h-2.146c0.002-0.021,0.003-0.041,0.003-0.062v-0.819h2.143
		V403.908L1113.688,403.908z M1110.459,403.908h-2.146v-0.881h2.143v0.819C1110.455,403.867,1110.456,403.888,1110.459,403.908z
		 M1114.777,403.908v-1.427c0-0.301-0.244-0.545-0.545-0.545h-6.465c-0.301,0-0.545,0.244-0.545,0.545v1.427h-3.628v-10.587h14.811
		v10.587H1114.777z M1107.12,388.089h7.76v4.142h-7.76V388.089L1107.12,388.089z"/>
</g>
</svg>
