<?xml version="1.0" encoding="utf-8"?>
<!-- Generator: Adobe Illustrator 16.0.0, SVG Export Plug-In . SVG Version: 6.00 Build 0)  -->
<!DOCTYPE svg PUBLIC "-//W3C//DTD SVG 1.1//EN" "http://www.w3.org/Graphics/SVG/1.1/DTD/svg11.dtd">
<svg version="1.1" id="Capa_1" xmlns="http://www.w3.org/2000/svg" xmlns:xlink="http://www.w3.org/1999/xlink" x="0px" y="0px"
	 width="19.145px" height="18px" viewBox="296.426 18.3 19.145 18" enable-background="new 296.426 18.3 19.145 18"
	 xml:space="preserve">
<g>
	<g>
		<path fill="#FFFFFF" d="M312.415,27.12c-0.311,0-0.552,0.24-0.552,0.552v7.542h-3.912v-3.08c0-0.289-0.241-0.542-0.532-0.542
			h-2.829c-0.311,0-0.562,0.252-0.562,0.542v3.08h-3.903v-7.292c0-0.292-0.241-0.533-0.552-0.533c-0.291,0-0.532,0.242-0.532,0.533
			v7.844c0,0.291,0.241,0.533,0.532,0.533h5.016c0.291,0,0.532-0.242,0.532-0.533v-3.08h1.746v3.08c0,0.291,0.241,0.533,0.552,0.533
			h4.996c0.291,0,0.532-0.242,0.532-0.533v-8.095C312.947,27.36,312.706,27.12,312.415,27.12z"/>
		<path fill="#FFFFFF" d="M315.415,27.55l-4.354-4.373v-2.981c0-0.311-0.251-0.55-0.563-0.55c-0.291,0-0.531,0.24-0.531,0.55v1.888
			l-3.592-3.613c-0.11-0.111-0.241-0.171-0.372-0.171c-0.15,0-0.281,0.062-0.391,0.171l-9.019,9.019
			c-0.216,0.216-0.231,0.563,0,0.762c0.2,0.231,0.546,0.216,0.762,0l8.648-8.628l8.628,8.709c0.09,0.09,0.221,0.141,0.391,0.141
			c0.151,0,0.281-0.051,0.392-0.141C315.616,28.132,315.63,27.769,315.415,27.55z"/>
	</g>
</g>
</svg>
