<?xml version="1.0" encoding="utf-8"?>
<!-- Generator: Adobe Illustrator 16.0.0, SVG Export Plug-In . SVG Version: 6.00 Build 0)  -->
<!DOCTYPE svg PUBLIC "-//W3C//DTD SVG 1.1//EN" "http://www.w3.org/Graphics/SVG/1.1/DTD/svg11.dtd">
<svg version="1.1" id="Capa_1" xmlns="http://www.w3.org/2000/svg" xmlns:xlink="http://www.w3.org/1999/xlink" x="0px" y="0px"
	 width="35px" height="35px" viewBox="0 0 35 35" enable-background="new 0 0 35 35" xml:space="preserve">
<path fill="#464636" d="M17.493,0.5C9.98,0.5,3.864,6.616,3.864,14.128c0,0.856,0.079,1.718,0.242,2.56
	c0.008,0.05,0.036,0.199,0.094,0.457c0.206,0.919,0.512,1.824,0.912,2.687c1.468,3.457,4.697,8.768,11.782,14.456
	c0.178,0.143,0.392,0.214,0.606,0.214s0.428-0.071,0.606-0.214c7.079-5.688,10.314-10.999,11.782-14.456
	c0.399-0.862,0.705-1.76,0.912-2.687c0.057-0.257,0.086-0.407,0.094-0.457c0.157-0.841,0.242-1.704,0.242-2.56
	C31.121,6.616,25.006,0.5,17.493,0.5z M28.983,16.353c0,0.014-0.007,0.029-0.007,0.042c-0.007,0.036-0.027,0.143-0.065,0.306
	c0,0.008,0,0.008,0,0.015c-0.177,0.798-0.441,1.576-0.79,2.324c-0.007,0.007-0.007,0.021-0.015,0.029
	c-1.333,3.158-4.255,7.976-10.614,13.229c-6.357-5.253-9.28-10.072-10.613-13.229c-0.007-0.008-0.007-0.022-0.015-0.029
	c-0.342-0.741-0.606-1.525-0.791-2.324c0-0.007,0-0.007,0-0.015c-0.043-0.163-0.057-0.27-0.064-0.306
	c0-0.014-0.007-0.028-0.007-0.05c-0.143-0.734-0.214-1.476-0.214-2.224c0-6.451,5.254-11.704,11.705-11.704
	s11.704,5.253,11.704,11.704C29.197,14.877,29.125,15.625,28.983,16.353z"/>
<path fill="#464636" d="M17.5,7c-3.675,0-6.67,2.995-6.67,6.67s2.995,6.67,6.67,6.67c3.676,0,6.67-2.995,6.67-6.67S21.176,7,17.5,7z
	 M17.5,18.856c-2.862,0-5.187-2.33-5.187-5.187c0-2.857,2.33-5.187,5.187-5.187c2.857,0,5.188,2.33,5.188,5.187
	C22.688,16.526,20.363,18.856,17.5,18.856z"/>
</svg>
