<?xml version="1.0" encoding="utf-8"?>
<!-- Generator: Adobe Illustrator 16.0.0, SVG Export Plug-In . SVG Version: 6.00 Build 0)  -->
<!DOCTYPE svg PUBLIC "-//W3C//DTD SVG 1.1//EN" "http://www.w3.org/Graphics/SVG/1.1/DTD/svg11.dtd">
<svg version="1.1" id="Capa_1" xmlns="http://www.w3.org/2000/svg" xmlns:xlink="http://www.w3.org/1999/xlink" x="0px" y="0px"
	 width="14.438px" height="18px" viewBox="292.781 0 14.438 18" enable-background="new 292.781 0 14.438 18" xml:space="preserve">
<path fill="#FFFFFF" d="M299.996,0c-3.977,0-7.215,3.238-7.215,7.215c0,0.453,0.042,0.91,0.128,1.355
	c0.004,0.026,0.019,0.105,0.049,0.242c0.109,0.487,0.271,0.966,0.483,1.422c0.777,1.83,2.487,4.642,6.238,7.653
	C299.773,17.962,299.887,18,300,18s0.227-0.038,0.321-0.113c3.748-3.011,5.46-5.823,6.238-7.653
	c0.211-0.457,0.373-0.932,0.482-1.422c0.03-0.136,0.046-0.215,0.05-0.242c0.083-0.445,0.128-0.902,0.128-1.355
	C307.211,3.238,303.974,0,299.996,0z M306.079,8.393c0,0.007-0.004,0.015-0.004,0.022c-0.004,0.019-0.015,0.076-0.034,0.162
	c0,0.004,0,0.004,0,0.008c-0.094,0.422-0.233,0.834-0.418,1.23c-0.004,0.004-0.004,0.011-0.008,0.015
	c-0.706,1.672-2.253,4.223-5.619,7.004c-3.366-2.781-4.913-5.332-5.619-7.004c-0.004-0.004-0.004-0.011-0.008-0.015
	c-0.181-0.392-0.321-0.808-0.418-1.23c0-0.004,0-0.004,0-0.008c-0.023-0.086-0.03-0.143-0.034-0.162
	c0-0.007-0.004-0.015-0.004-0.026C293.838,8,293.8,7.607,293.8,7.211c0-3.415,2.781-6.196,6.196-6.196s6.196,2.781,6.196,6.196
	C306.192,7.611,306.154,8.007,306.079,8.393z"/>
<path fill="#FFFFFF" d="M299.996,3.763c-1.946,0-3.531,1.585-3.531,3.531s1.585,3.531,3.531,3.531c1.946,0,3.531-1.585,3.531-3.531
	S301.942,3.763,299.996,3.763z M299.996,10.04c-1.515,0-2.746-1.233-2.746-2.746c0-1.513,1.233-2.746,2.746-2.746
	c1.513,0,2.746,1.233,2.746,2.746C302.742,8.807,301.512,10.04,299.996,10.04z"/>
</svg>
