<?xml version="1.0" encoding="utf-8"?>
<!-- Generator: Adobe Illustrator 16.0.0, SVG Export Plug-In . SVG Version: 6.00 Build 0)  -->
<!DOCTYPE svg PUBLIC "-//W3C//DTD SVG 1.1//EN" "http://www.w3.org/Graphics/SVG/1.1/DTD/svg11.dtd">
<svg version="1.1" id="Layer_1" xmlns="http://www.w3.org/2000/svg" xmlns:xlink="http://www.w3.org/1999/xlink" x="0px" y="0px"
	 width="20.48px" height="18px" viewBox="289.76 5.328 20.48 18" enable-background="new 289.76 5.328 20.48 18"
	 xml:space="preserve">
<path fill="#FFFFFF" d="M309.644,7.729c-0.001,0-0.002,0-0.004,0H304.2v-0.6c0-0.992-0.808-1.8-1.8-1.8h-4.8
	c-0.993,0-1.8,0.808-1.8,1.8v0.6h-5.44c-0.334,0-0.6,0.274-0.6,0.6v13.2c0,0.992,0.808,1.8,1.8,1.8h16.88c0.992,0,1.8-0.808,1.8-1.8
	V8.341c0-0.001,0-0.001,0-0.002C310.217,7.944,309.975,7.73,309.644,7.729z M297,7.128c0-0.331,0.269-0.6,0.6-0.6h4.8
	c0.33,0,0.6,0.269,0.6,0.6v0.6h-6V7.128z M308.808,8.928l-1.863,5.589c-0.082,0.246-0.311,0.411-0.569,0.411H303v-0.6
	c0-0.332-0.269-0.6-0.6-0.6h-4.8c-0.332,0-0.6,0.269-0.6,0.6v0.6h-3.375c-0.259,0-0.487-0.165-0.569-0.411l-1.863-5.589H308.808z
	 M301.8,14.928v1.2h-3.6v-1.2H301.8z M309.04,21.528c0,0.331-0.27,0.6-0.6,0.6h-16.88c-0.331,0-0.6-0.269-0.6-0.6v-9.503
	l0.958,2.872c0.245,0.736,0.932,1.23,1.708,1.23H297v0.6c0,0.332,0.269,0.6,0.6,0.6h4.8c0.331,0,0.6-0.269,0.6-0.6v-0.6h3.375
	c0.776,0,1.462-0.494,1.708-1.23l0.957-2.872V21.528z"/>
</svg>
