<?xml version="1.0" encoding="utf-8"?>
<!-- Generator: Adobe Illustrator 16.0.0, SVG Export Plug-In . SVG Version: 6.00 Build 0)  -->
<!DOCTYPE svg PUBLIC "-//W3C//DTD SVG 1.1//EN" "http://www.w3.org/Graphics/SVG/1.1/DTD/svg11.dtd">
<svg version="1.1" xmlns="http://www.w3.org/2000/svg" xmlns:xlink="http://www.w3.org/1999/xlink" x="0px" y="0px" width="35px"
	 height="35px" viewBox="0 0 35 35" enable-background="new 0 0 35 35" xml:space="preserve">
<g id="Capa_1">
</g>
<g id="Layer_1">
	<g>
		<path fill="#464636" d="M33.509,6.544c-0.001,0-0.003-0.001-0.006-0.001h-9.03V5.547c0-1.647-1.34-2.988-2.988-2.988h-7.969
			c-1.648,0-2.989,1.341-2.989,2.988v0.996H1.496C0.942,6.543,0.5,6.998,0.5,7.539v21.914c0,1.647,1.341,2.988,2.989,2.988h28.023
			c1.647,0,2.988-1.341,2.988-2.988V7.561c0-0.002,0-0.002,0-0.004C34.461,6.902,34.059,6.547,33.509,6.544z M12.52,5.547
			c0-0.549,0.447-0.996,0.997-0.996h7.969c0.548,0,0.996,0.447,0.996,0.996v0.996H12.52V5.547z M32.122,8.536l-3.093,9.279
			c-0.136,0.408-0.516,0.682-0.945,0.682H22.48V17.5c0-0.55-0.446-0.996-0.996-0.996h-7.969c-0.551,0-0.997,0.446-0.997,0.996v0.996
			H6.917c-0.429,0-0.809-0.274-0.945-0.682L2.878,8.536H32.122z M20.488,18.496v1.992h-5.976v-1.992H20.488z M32.507,29.453
			c0,0.549-0.447,0.996-0.995,0.996H3.489c-0.55,0-0.996-0.447-0.996-0.996V13.677l1.589,4.768c0.407,1.222,1.547,2.042,2.834,2.042
			h5.603v0.996c0,0.551,0.446,0.997,0.997,0.997h7.969c0.55,0,0.996-0.446,0.996-0.997v-0.996h5.603c1.289,0,2.427-0.82,2.835-2.042
			l1.588-4.768V29.453z"/>
	</g>
</g>
</svg>
