<?xml version="1.0" encoding="utf-8"?>
<!-- Generator: Adobe Illustrator 16.0.0, SVG Export Plug-In . SVG Version: 6.00 Build 0)  -->
<!DOCTYPE svg PUBLIC "-//W3C//DTD SVG 1.1//EN" "http://www.w3.org/Graphics/SVG/1.1/DTD/svg11.dtd">
<svg version="1.1" id="Capa_1" xmlns="http://www.w3.org/2000/svg" xmlns:xlink="http://www.w3.org/1999/xlink" x="0px" y="0px"
	 width="18px" height="22.911px" viewBox="291 0 18 22.911" enable-background="new 291 0 18 22.911" xml:space="preserve">
<g>
	<g>
		<g>
			<path fill="#FFFFFF" d="M306.709,3.002h-2.072V2.075c0-0.3-0.328-0.437-0.628-0.437H302.4c-0.383-1.091-1.336-1.636-2.428-1.636
				c-1.079-0.041-2.06,0.621-2.428,1.636h-1.582c-0.3,0-0.6,0.137-0.6,0.437v0.927h-2.073c-1.228,0.013-2.233,0.982-2.291,2.209
				v15.627c0,1.2,1.091,2.073,2.291,2.073h13.418c1.2,0,2.291-0.873,2.291-2.073V5.211C308.942,3.984,307.938,3.015,306.709,3.002z
				 M296.455,2.729h1.5c0.262-0.032,0.472-0.231,0.519-0.49c0.162-0.704,0.778-1.209,1.5-1.228c0.715,0.021,1.322,0.528,1.473,1.228
				c0.049,0.269,0.272,0.47,0.546,0.49h1.554v2.182h-7.09V2.729z M307.909,20.838c0,0.601-0.601,0.982-1.2,0.982h-13.418
				c-0.6,0-1.2-0.381-1.2-0.982V5.211c0.055-0.625,0.573-1.107,1.2-1.118h2.073v1.391c0.028,0.305,0.293,0.534,0.6,0.518h8.045
				c0.312,0.017,0.586-0.208,0.628-0.518V4.093h2.072c0.627,0.011,1.145,0.493,1.2,1.118V20.838L307.909,20.838z"/>
			<path fill="#FFFFFF" d="M297.9,12.193c-0.205-0.216-0.544-0.228-0.764-0.027l-1.746,1.664l-0.736-0.764
				c-0.206-0.216-0.544-0.228-0.764-0.027c-0.211,0.221-0.211,0.569,0,0.791l1.118,1.146c0.097,0.108,0.237,0.168,0.382,0.164
				c0.144-0.002,0.281-0.061,0.382-0.164l2.127-2.019c0.211-0.193,0.225-0.521,0.032-0.732
				C297.921,12.214,297.911,12.203,297.9,12.193z"/>
			<path fill="#FFFFFF" d="M305.727,13.366h-6.272c-0.302,0-0.546,0.244-0.546,0.545s0.244,0.545,0.546,0.545h6.272
				c0.302,0,0.546-0.244,0.546-0.545S306.028,13.366,305.727,13.366z"/>
			<path fill="#FFFFFF" d="M297.9,7.829c-0.205-0.216-0.544-0.228-0.764-0.027l-1.746,1.663l-0.736-0.763
				c-0.206-0.215-0.544-0.228-0.764-0.027c-0.211,0.221-0.211,0.569,0,0.791l1.118,1.146c0.097,0.109,0.237,0.168,0.382,0.164
				c0.144-0.002,0.281-0.061,0.382-0.164l2.127-2.018c0.211-0.193,0.225-0.521,0.032-0.732C297.921,7.85,297.911,7.84,297.9,7.829z"
				/>
			<path fill="#FFFFFF" d="M305.727,9.002h-6.272c-0.302,0-0.546,0.244-0.546,0.545c0,0.302,0.244,0.546,0.546,0.546h6.272
				c0.302,0,0.546-0.244,0.546-0.546C306.272,9.246,306.028,9.002,305.727,9.002z"/>
			<path fill="#FFFFFF" d="M297.9,16.557c-0.205-0.215-0.544-0.228-0.764-0.027l-1.746,1.664l-0.736-0.764
				c-0.206-0.215-0.544-0.228-0.764-0.027c-0.211,0.222-0.211,0.57,0,0.792l1.118,1.146c0.097,0.108,0.237,0.168,0.382,0.163
				c0.144-0.001,0.281-0.061,0.382-0.163l2.127-2.018c0.211-0.194,0.225-0.521,0.032-0.733
				C297.921,16.577,297.911,16.567,297.9,16.557z"/>
			<path fill="#FFFFFF" d="M305.727,17.729h-6.272c-0.302,0-0.546,0.244-0.546,0.545s0.244,0.545,0.546,0.545h6.272
				c0.302,0,0.546-0.244,0.546-0.545S306.028,17.729,305.727,17.729z"/>
		</g>
	</g>
</g>
</svg>
