<!-- Generator: Adobe Illustrator 19.1.0, SVG Export Plug-In  -->
<svg version="1.1"
	 xmlns="http://www.w3.org/2000/svg" xmlns:xlink="http://www.w3.org/1999/xlink" xmlns:a="http://ns.adobe.com/AdobeSVGViewerExtensions/3.0/"
	 x="0px" y="0px" width="213.5px" height="157px" viewBox="0 0 213.5 157" style="enable-background:new 0 0 213.5 157;"
	 xml:space="preserve">
<style type="text/css">
	.st0{fill:#FFFFFF;}
</style>
<defs>
</defs>
<g>
	<path class="st0" d="M34.5,48.8V26h66v30h13V26h66v23.1c4,2.6,8,5.4,13,8.1V16c0-4.5-1.7-8.2-4.9-11.4c-3.2-3.2-7.2-4.6-11.7-4.6
		H38.2c-4.5,0-8.5,1.4-11.7,4.6c-3.2,3.2-5,6.9-5,11.4v40.9C26.5,54.2,30.5,51.4,34.5,48.8z"/>
	<path class="st0" d="M179.5,115.1v25.4c0,0.9-0.5,1.7-1.1,2.4c-0.6,0.6-1.6,1.1-2.5,1.1h-62.4v-37h-13v37H38.2
		c-0.9,0-1.9-0.4-2.5-1.1c-0.6-0.6-1.2-1.5-1.2-2.4v-24.9c-4-2.6-8-5.4-13-8.1v33c0,4.5,1.8,8.4,5,11.6c3.2,3.2,7.2,4.8,11.7,4.8
		h137.7c4.5,0,8.5-1.6,11.7-4.8c3.2-3.2,4.9-7.1,4.9-11.6V107C187.5,109.7,183.5,112.5,179.5,115.1z"/>
</g>
<path class="st0" d="M150.7,43.8c-7.1-3.4-12.3,2.4-8.9,10.3c1.4,3.3,2.6,7.9,3.4,11.9H68.3c0.8-4,2-8.6,3.4-11.8
	c3.4-7.8-1.8-13.7-8.9-10.2C55.7,47.3,0,82.2,0,82.2s55.7,34.9,62.8,38.3c7.1,3.4,12.4-2.5,8.9-10.3c-1.6-3.6-2.8-8.2-3.7-13.2h77.4
	c-0.9,5-2.1,9.5-3.7,13.1c-3.4,7.8,1.8,13.7,8.9,10.3c7.1-3.4,62.8-38.3,62.8-38.3S157.8,47.2,150.7,43.8z"/>
</svg>
