<?xml version="1.0" encoding="utf-8"?>
<!-- Generator: Adobe Illustrator 16.0.0, SVG Export Plug-In . SVG Version: 6.00 Build 0)  -->
<!DOCTYPE svg PUBLIC "-//W3C//DTD SVG 1.1//EN" "http://www.w3.org/Graphics/SVG/1.1/DTD/svg11.dtd">
<svg version="1.1" id="Layer_1" xmlns="http://www.w3.org/2000/svg" xmlns:xlink="http://www.w3.org/1999/xlink" x="0px" y="0px"
	 width="20.498px" height="18px" viewBox="289.751 36.563 20.498 18" enable-background="new 289.751 36.563 20.498 18"
	 xml:space="preserve">
<g>
	<g>
		<path fill="#FFFFFF" d="M309.765,53.595h-19.529c-0.268,0-0.484,0.217-0.484,0.484s0.217,0.484,0.484,0.484h19.529
			c0.268,0,0.484-0.217,0.484-0.484C310.249,53.812,310.032,53.595,309.765,53.595z"/>
	</g>
</g>
<g>
	<g>
		<path fill="#FFFFFF" d="M308.502,38.85h-3.4c-0.268,0-0.484,0.217-0.484,0.484v3.292h-2.433v-5.579
			c0-0.268-0.217-0.484-0.484-0.484h-3.401c-0.267,0-0.484,0.217-0.484,0.484v9.164h-2.432v-4.117c0-0.268-0.217-0.484-0.484-0.484
			h-3.401c-0.268,0-0.484,0.217-0.484,0.484v9.271c0,0.268,0.217,0.484,0.484,0.484h3.401h3.401h3.401h3.401h3.4
			c0.268,0,0.484-0.217,0.484-0.484V39.334C308.986,39.066,308.77,38.85,308.502,38.85z M294.414,50.881h-2.432v-8.302h2.432V50.881
			L294.414,50.881z M297.815,50.881h-2.433V47.18h2.433V50.881z M301.216,43.111v7.771h-2.432V37.532h2.432V43.111z M304.617,50.881
			h-2.433v-7.286h2.433V50.881z M308.019,50.881h-2.433v-7.771v-3.292h2.433V50.881L308.019,50.881z"/>
	</g>
</g>
</svg>
