<?xml version="1.0" encoding="utf-8"?>
<!-- Generator: Adobe Illustrator 16.0.0, SVG Export Plug-In . SVG Version: 6.00 Build 0)  -->
<!DOCTYPE svg PUBLIC "-//W3C//DTD SVG 1.1//EN" "http://www.w3.org/Graphics/SVG/1.1/DTD/svg11.dtd">
<svg version="1.1" xmlns="http://www.w3.org/2000/svg" xmlns:xlink="http://www.w3.org/1999/xlink" x="0px" y="0px" width="35px"
	 height="35px" viewBox="0 0 35 35" enable-background="new 0 0 35 35" xml:space="preserve">
<g id="Capa_1">
</g>
<g id="Layer_1">
	<g>
		<g>
			<g>
				<path fill="#464636" d="M33.697,30.821H1.303c-0.444,0-0.803,0.36-0.803,0.804s0.359,0.803,0.803,0.803h32.394
					c0.444,0,0.803-0.359,0.803-0.803C34.5,31.182,34.141,30.821,33.697,30.821z"/>
			</g>
		</g>
		<g>
			<g>
				<path fill="#464636" d="M31.602,6.364h-5.64c-0.444,0-0.803,0.359-0.803,0.803v5.461h-4.035V3.375
					c0-0.444-0.359-0.803-0.803-0.803h-5.641c-0.443,0-0.804,0.359-0.804,0.803v15.2H9.841v-6.828c0-0.444-0.359-0.804-0.803-0.804
					H3.397c-0.444,0-0.803,0.36-0.803,0.804v15.377c0,0.444,0.359,0.803,0.803,0.803h5.641h5.641h5.641h5.642h5.64
					c0.444,0,0.804-0.359,0.804-0.803V7.167C32.406,6.723,32.046,6.364,31.602,6.364z M8.235,26.321H4.201V12.55h4.034V26.321
					L8.235,26.321z M13.876,26.321H9.841v-6.14h4.035V26.321z M19.517,13.432v12.889h-4.034V4.179h4.034V13.432z M25.159,26.321
					h-4.035V14.235h4.035V26.321z M30.8,26.321h-4.035V13.432V7.971H30.8V26.321L30.8,26.321z"/>
			</g>
		</g>
	</g>
</g>
</svg>
