<?xml version="1.0" encoding="utf-8"?>
<!-- Generator: Adobe Illustrator 16.0.0, SVG Export Plug-In . SVG Version: 6.00 Build 0)  -->
<!DOCTYPE svg PUBLIC "-//W3C//DTD SVG 1.1//EN" "http://www.w3.org/Graphics/SVG/1.1/DTD/svg11.dtd">
<svg version="1.1" xmlns="http://www.w3.org/2000/svg" xmlns:xlink="http://www.w3.org/1999/xlink" x="0px" y="0px" width="35px"
	 height="35px" viewBox="0 0 35 35" enable-background="new 0 0 35 35" xml:space="preserve">
<g id="Capa_1">
	<g>
		<g>
			<g>
				<path fill="#464636" d="M27.457,4.955h-3.076V3.579c0-0.445-0.486-0.648-0.932-0.648h-2.387
					c-0.568-1.619-1.982-2.428-3.603-2.428c-1.601-0.061-3.058,0.921-3.603,2.428H11.51c-0.445,0-0.89,0.203-0.89,0.648v1.376H7.543
					C5.721,4.974,4.229,6.412,4.144,8.233v23.191c0,1.781,1.619,3.076,3.399,3.076h19.914c1.78,0,3.399-1.295,3.399-3.076V8.233
					C30.771,6.412,29.279,4.974,27.457,4.955z M12.239,4.55h2.225c0.39-0.047,0.701-0.344,0.77-0.728
					C15.474,2.778,16.389,2.028,17.46,2c1.061,0.032,1.962,0.784,2.186,1.822c0.072,0.398,0.404,0.698,0.81,0.728h2.306v3.238
					H12.239V4.55z M29.237,31.424c0,0.891-0.891,1.457-1.78,1.457H7.543c-0.89,0-1.78-0.566-1.78-1.457V8.233
					c0.082-0.927,0.852-1.643,1.78-1.659h3.077v2.063c0.042,0.453,0.436,0.793,0.89,0.769h11.939c0.463,0.025,0.87-0.31,0.932-0.769
					V6.574h3.076c0.93,0.017,1.698,0.732,1.78,1.659V31.424L29.237,31.424z"/>
				<path fill="#464636" d="M14.384,18.595c-0.305-0.32-0.808-0.338-1.133-0.041l-2.591,2.469L9.568,19.89
					c-0.306-0.32-0.809-0.338-1.135-0.041c-0.313,0.328-0.313,0.845,0,1.174l1.66,1.7c0.144,0.16,0.351,0.249,0.566,0.243
					c0.214-0.003,0.417-0.091,0.566-0.243l3.156-2.996c0.314-0.287,0.334-0.773,0.047-1.087
					C14.416,18.625,14.399,18.609,14.384,18.595z"/>
				<path fill="#464636" d="M25.999,20.335h-9.308c-0.448,0-0.811,0.361-0.811,0.809s0.362,0.81,0.811,0.81h9.308
					c0.447,0,0.81-0.362,0.81-0.81S26.446,20.335,25.999,20.335z"/>
				<path fill="#464636" d="M14.384,12.118c-0.305-0.32-0.808-0.337-1.133-0.04l-2.591,2.468l-1.092-1.132
					c-0.306-0.32-0.809-0.338-1.135-0.041c-0.313,0.329-0.313,0.845,0,1.173l1.66,1.7c0.144,0.161,0.351,0.25,0.566,0.243
					c0.214-0.003,0.417-0.09,0.566-0.243l3.156-2.995c0.314-0.287,0.334-0.774,0.047-1.086
					C14.416,12.149,14.399,12.134,14.384,12.118z"/>
				<path fill="#464636" d="M25.999,13.859h-9.308c-0.448,0-0.811,0.362-0.811,0.809c0,0.448,0.362,0.811,0.811,0.811h9.308
					c0.447,0,0.81-0.362,0.81-0.811C26.809,14.221,26.446,13.859,25.999,13.859z"/>
				<path fill="#464636" d="M14.384,25.07c-0.305-0.319-0.808-0.338-1.133-0.041l-2.591,2.47l-1.092-1.134
					c-0.306-0.319-0.809-0.338-1.135-0.041c-0.313,0.329-0.313,0.846,0,1.175l1.66,1.7c0.144,0.16,0.351,0.25,0.566,0.242
					c0.214-0.002,0.417-0.09,0.566-0.242l3.156-2.995c0.314-0.288,0.334-0.774,0.047-1.088
					C14.416,25.101,14.399,25.085,14.384,25.07z"/>
				<path fill="#464636" d="M25.999,26.811h-9.308c-0.448,0-0.811,0.362-0.811,0.81c0,0.447,0.362,0.809,0.811,0.809h9.308
					c0.447,0,0.81-0.362,0.81-0.809C26.809,27.173,26.446,26.811,25.999,26.811z"/>
			</g>
		</g>
	</g>
</g>
<g id="Layer_1">
</g>
</svg>
