<?xml version="1.0" encoding="utf-8"?>
<!-- Generator: Adobe Illustrator 23.0.1, SVG Export Plug-In . SVG Version: 6.00 Build 0)  -->
<svg version="1.1" id="Capa_1" xmlns="http://www.w3.org/2000/svg" xmlns:xlink="http://www.w3.org/1999/xlink" x="0px" y="0px"
	 viewBox="0 0 24.2 18.5" style="enable-background:new 0 0 24.2 18.5;" xml:space="preserve">
<style type="text/css">
	.st0{fill:none;stroke:#FFFFFF;stroke-linecap:round;stroke-miterlimit:10;}
</style>
<g>
	<path class="st0" d="M12.1,9.3c1.8,0,3.3-1.5,3.3-3.3s-1.5-3.3-3.3-3.3S8.8,4.1,8.8,6S10.3,9.3,12.1,9.3z"/>
	<path class="st0" d="M13.5,9.5h-2.8c-2.3,0-4.2,1.9-4.2,4.2v3.4v0.1l0.2,0.1c2.2,0.7,4.2,0.9,5.8,0.9c3.1,0,4.9-0.9,5-0.9l0.2-0.1
		l0,0v-3.4C17.8,11.4,15.9,9.5,13.5,9.5z"/>
	<g>
		<path class="st0" d="M16.6,5.8c0.5,0.3,1,0.4,1.6,0.4c1.6,0,3-1.3,3-2.9s-1.3-2.9-3-2.9c-1.3,0-2.5,0.8-2.8,2"/>
		<path class="st0" d="M18.8,15.9c1.4-0.1,3-0.3,4.8-0.9l0.2-0.1v-0.1v-3.4c0-2.3-1.9-4.2-4.2-4.2h-2.8c-0.1,0-0.2,0-0.3,0"/>
	</g>
	<g>
		<path class="st0" d="M8.9,2.5c-0.4-1.2-1.5-2-2.8-2c-1.6,0-3,1.3-3,2.9s1.3,2.9,3,2.9c0.5-0.1,1-0.2,1.5-0.5"/>
		<path class="st0" d="M7.7,7.2c-0.1,0-0.2,0-0.3,0H4.6c-2.3,0-4.2,1.9-4.2,4.2v3.5V15h0.2c1.8,0.6,3.4,0.9,4.8,0.9"/>
	</g>
</g>
</svg>
