<?xml version="1.0" encoding="utf-8"?>
<!-- Generator: Adobe Illustrator 16.0.0, SVG Export Plug-In . SVG Version: 6.00 Build 0)  -->
<!DOCTYPE svg PUBLIC "-//W3C//DTD SVG 1.1//EN" "http://www.w3.org/Graphics/SVG/1.1/DTD/svg11.dtd">
<svg version="1.1" xmlns="http://www.w3.org/2000/svg" xmlns:xlink="http://www.w3.org/1999/xlink" x="0px" y="0px" width="35px"
	 height="35px" viewBox="0 0 35 35" enable-background="new 0 0 35 35" xml:space="preserve">
<g id="Capa_1">
</g>
<g id="Layer_1">
	<g>
		<g>
			<path fill="#464636" d="M24.886,12.032h0.738c1.212,0,2.188,0.984,2.188,2.188v3.435c0,0.219-0.109,0.419-0.292,0.538
				c-0.255,0.165-0.401,0.447-0.401,0.747v3.309c0,0.41,0.228,0.765,0.592,0.947c0.429,0.209,2.653,1.331,4.712,3.025
				c0.173,0.146,0.273,0.355,0.273,0.592v2.351c0,0.501,0.401,0.902,0.902,0.902c0.502,0,0.903-0.401,0.903-0.902v-2.351
				c0-0.774-0.338-1.494-0.939-1.986c-1.813-1.495-3.755-2.57-4.647-3.035v-2.433c0.437-0.456,0.692-1.058,0.692-1.705V14.22
				c0-2.206-1.794-3.991-3.991-3.991h-0.738c-2.205,0-3.991,1.795-3.991,3.991v3.435c0,0.647,0.255,1.249,0.693,1.705v1.175
				c0,0.501,0.401,0.902,0.902,0.902c0.5,0,0.902-0.401,0.902-0.902v-1.585c0-0.301-0.154-0.583-0.401-0.748
				c-0.181-0.118-0.291-0.318-0.291-0.538v-3.435C22.69,13.017,23.674,12.032,24.886,12.032z"/>
			<path fill="#464636" d="M23.008,30.076c0.502,0,0.902-0.401,0.902-0.902V26.13c0-0.92-0.399-1.777-1.11-2.36
				c-2.433-2.005-5.04-3.427-6.106-3.973V16.37c0.565-0.547,0.894-1.294,0.894-2.096V9.827c0-2.707-2.205-4.903-4.902-4.903h-0.957
				c-2.708,0-4.903,2.205-4.903,4.903v4.447c0,0.801,0.327,1.548,0.892,2.096v3.426c-1.065,0.546-3.672,1.968-6.104,3.973
				C0.901,24.353,0.5,25.209,0.5,26.13v3.043c0,0.501,0.401,0.902,0.902,0.902c0.501,0,0.902-0.401,0.902-0.902V26.13
				c0-0.374,0.164-0.729,0.456-0.966c2.688-2.205,5.596-3.673,6.151-3.946c0.382-0.182,0.619-0.565,0.619-0.984v-4.283
				c0-0.3-0.154-0.583-0.401-0.747c-0.31-0.209-0.491-0.546-0.491-0.92V9.836c0-1.713,1.393-3.098,3.097-3.098h0.957
				c1.714,0,3.099,1.394,3.099,3.098v4.447c0,0.364-0.183,0.711-0.493,0.92c-0.255,0.165-0.4,0.447-0.4,0.747v4.283
				c0,0.419,0.236,0.802,0.62,0.993c0.555,0.274,3.462,1.741,6.151,3.946c0.291,0.237,0.456,0.592,0.456,0.966v3.044
				C22.106,29.674,22.507,30.076,23.008,30.076z"/>
		</g>
	</g>
</g>
</svg>
