<?xml version="1.0" encoding="utf-8"?>
<!-- Generator: Adobe Illustrator 16.0.0, SVG Export Plug-In . SVG Version: 6.00 Build 0)  -->
<!DOCTYPE svg PUBLIC "-//W3C//DTD SVG 1.1//EN" "http://www.w3.org/Graphics/SVG/1.1/DTD/svg11.dtd">
<svg version="1.1" id="Layer_1" xmlns="http://www.w3.org/2000/svg" xmlns:xlink="http://www.w3.org/1999/xlink" x="0px" y="0px"
	 width="24.333px" height="18px" viewBox="359.545 131.124 24.333 18" enable-background="new 359.545 131.124 24.333 18"
	 xml:space="preserve">
<g>
	<g>
		<path fill="#FFFFFF" d="M376.997,136.211h0.528c0.867,0,1.565,0.705,1.565,1.565v2.458c0,0.157-0.078,0.3-0.209,0.385
			c-0.183,0.118-0.287,0.32-0.287,0.535v2.368c0,0.293,0.163,0.548,0.424,0.678c0.307,0.15,1.898,0.952,3.372,2.165
			c0.124,0.104,0.195,0.254,0.195,0.424v1.683c0,0.359,0.287,0.646,0.646,0.646c0.359,0,0.646-0.287,0.646-0.646v-1.683
			c0-0.554-0.242-1.069-0.672-1.421c-1.298-1.07-2.688-1.839-3.326-2.172v-1.741c0.313-0.326,0.495-0.757,0.495-1.22v-2.458
			c0-1.579-1.284-2.856-2.856-2.856h-0.528c-1.578,0-2.856,1.285-2.856,2.856v2.458c0,0.463,0.183,0.894,0.496,1.22v0.841
			c0,0.358,0.287,0.646,0.646,0.646s0.646-0.287,0.646-0.646v-1.135c0-0.215-0.11-0.417-0.287-0.535
			c-0.13-0.084-0.208-0.228-0.208-0.385v-2.458C375.426,136.916,376.13,136.211,376.997,136.211z"/>
		<path fill="#FFFFFF" d="M375.653,149.124c0.359,0,0.646-0.287,0.646-0.646V146.3c0-0.659-0.286-1.272-0.795-1.689
			c-1.741-1.435-3.606-2.452-4.37-2.843v-2.452c0.404-0.392,0.64-0.926,0.64-1.5v-3.183c0-1.937-1.578-3.509-3.509-3.509h-0.685
			c-1.938,0-3.509,1.578-3.509,3.509v3.183c0,0.574,0.234,1.108,0.639,1.5v2.452c-0.763,0.391-2.628,1.409-4.369,2.843
			c-0.509,0.417-0.796,1.031-0.796,1.689v2.178c0,0.358,0.287,0.646,0.646,0.646s0.646-0.287,0.646-0.646V146.3
			c0-0.268,0.117-0.522,0.326-0.691c1.924-1.578,4.005-2.628,4.402-2.824c0.273-0.13,0.443-0.404,0.443-0.704v-3.065
			c0-0.215-0.11-0.417-0.287-0.535c-0.222-0.15-0.352-0.391-0.352-0.659v-3.183c0-1.226,0.997-2.217,2.217-2.217h0.685
			c1.227,0,2.218,0.998,2.218,2.217v3.183c0,0.261-0.131,0.509-0.353,0.659c-0.183,0.118-0.286,0.32-0.286,0.535v3.065
			c0,0.3,0.169,0.574,0.443,0.711c0.397,0.196,2.478,1.246,4.402,2.824c0.208,0.169,0.326,0.424,0.326,0.691v2.178
			C375.008,148.837,375.295,149.124,375.653,149.124z"/>
	</g>
</g>
</svg>
